<svg xmlns="http://www.w3.org/2000/svg" viewBox="0 0 512 512" width="512" height="512" role="img" aria-label="Delvex">
  <rect width="512" height="512" rx="112" fill="#0c5b51" />

  <!-- Same glyph, drawn heavier and a touch larger: at 16px the regular stroke
       thins out to a smudge. -->
  <g transform="translate(104 104) scale(12.6667)" fill="none" stroke="#f9faf8"
     stroke-width="2.6" stroke-linecap="round" stroke-linejoin="round">
    <path d="M11 21.73a2 2 0 0 0 2 0l7-4A2 2 0 0 0 21 16V8a2 2 0 0 0-1-1.73l-7-4a2 2 0 0 0-2 0l-7 4A2 2 0 0 0 3 8v8a2 2 0 0 0 1 1.73z" />
    <path d="M12 22V12" />
    <polyline points="3.29 7 12 12 20.71 7" />
    <path d="m7.5 4.27 9 5.15" />
  </g>
</svg>
