<svg xmlns="http://www.w3.org/2000/svg" viewBox="0 0 512 512" width="512" height="512" role="img" aria-label="Delvex">
  <style>
    .plate { fill: #0c5b51; }
    @media (prefers-color-scheme: dark) {
      .plate { fill: #0f6d61; }
    }
  </style>
  <rect width="512" height="512" rx="112" class="plate" />

  <!-- The lucide "package" glyph, scaled from its 24-unit grid onto the plate. -->
  <g transform="translate(120 120) scale(11.3333)" fill="none" stroke="#f9faf8"
     stroke-width="2" stroke-linecap="round" stroke-linejoin="round">
    <path d="M11 21.73a2 2 0 0 0 2 0l7-4A2 2 0 0 0 21 16V8a2 2 0 0 0-1-1.73l-7-4a2 2 0 0 0-2 0l-7 4A2 2 0 0 0 3 8v8a2 2 0 0 0 1 1.73z" />
    <path d="M12 22V12" />
    <polyline points="3.29 7 12 12 20.71 7" />
    <path d="m7.5 4.27 9 5.15" />
  </g>
</svg>
